<?xml version="1.0" encoding="UTF-8"?>
<svg width="56px" height="56px" viewBox="0 0 56 56" version="1.1" xmlns="http://www.w3.org/2000/svg" xmlns:xlink="http://www.w3.org/1999/xlink">
    <!-- Generator: Sketch 46.2 (44496) - http://www.bohemiancoding.com/sketch -->
    <title>添加图片</title>
    <desc>添加图片</desc>
    <defs></defs>
    <g id="xyz-form" stroke="none" stroke-width="1" fill="none" fill-rule="evenodd">
        <rect id="xyz-rectangle-1" fill="#FFFFFF" x="0" y="0" width="56" height="56"></rect>
        <path d="M27.0666667,16.8 L20.5271712,16.8 C20.0152832,16.8 19.6,17.2178676 19.6,17.7333333 C19.6,18.2523928 20.0151087,18.6666667 20.5271712,18.6666667 L27.0666667,18.6666667 L27.0666667,25.2061622 C27.0666667,25.7180501 27.4845342,26.1333333 28,26.1333333 C28.5190595,26.1333333 28.9333333,25.7182247 28.9333333,25.2061622 L28.9333333,18.6666667 L35.4728288,18.6666667 C35.9847168,18.6666667 36.4,18.2487991 36.4,17.7333333 C36.4,17.2142738 35.9848913,16.8 35.4728288,16.8 L28.9333333,16.8 L28.9333333,10.2605045 C28.9333333,9.74861654 28.5154658,9.33333333 28,9.33333333 C27.4809405,9.33333333 27.0666667,9.74844201 27.0666667,10.2605045 L27.0666667,16.8 Z" id="Combined-Shape" fill="#2D7FFF" opacity="0.800000012"></path>
        <text id="xyz-text" font-family="MicrosoftYaHei, Microsoft YaHei" font-size="11" font-weight="normal" fill="#999999">
            <tspan x="7.4" y="43.2333333">添加图片</tspan>
        </text>
    </g>
</svg>